<svg width="17" height="13" viewBox="0 0 17 13" fill="none" xmlns="http://www.w3.org/2000/svg">
<path opacity="1" d="M15.0696 0.114768C15.0696 0.114768 16.5729 -0.447946 16.4476 0.918646C16.4059 1.48137 16.0301 3.45087 15.7377 5.58116L14.7356 11.8916C14.7356 11.8916 14.6521 12.8161 13.9004 12.9769C13.1488 13.1376 12.0214 12.4141 11.8126 12.2533C11.6456 12.1328 8.68087 10.324 7.63692 9.43978C7.34461 9.19861 7.01056 8.71627 7.67867 8.15356L12.0632 4.13418C12.5642 3.65185 13.0653 2.52642 10.9775 3.89301L5.13152 7.71145C5.13152 7.71145 4.46341 8.11337 3.21073 7.75164L0.496519 6.94775C0.496519 6.94775 -0.505646 6.34485 1.20639 5.74191C5.38208 3.85279 10.5182 1.92348 15.0696 0.114768Z" fill="#4D9EFE"/>
</svg>
